HIERARCHY
ROOT mixamorig:Hips
{
  OFFSET 0.000000 0.000000 0.000000
  CHANNELS 6 Xposition Yposition Zposition Zrotation Xrotation Yrotation
  JOINT mixamorig:Spine
  {
    OFFSET 0.000000 9.878500 1.258800
    CHANNELS 3 Zrotation Xrotation Yrotation
    JOINT mixamorig:Spine1
    {
      OFFSET 0.000000 11.272100 0.038100
      CHANNELS 3 Zrotation Xrotation Yrotation
      JOINT mixamorig:Spine2
      {
        OFFSET 0.000000 10.749001 -0.597600
        CHANNELS 3 Zrotation Xrotation Yrotation
        JOINT mixamorig:Neck
        {
          OFFSET 0.000000 12.015200 -1.691700
          CHANNELS 3 Zrotation Xrotation Yrotation
          JOINT mixamorig:Head
          {
            OFFSET 0.000000 8.810500 2.213900
            CHANNELS 3 Zrotation Xrotation Yrotation
            End Site
            {
              OFFSET 0.000000 18.232300 3.738000
            }
          }
        }
        JOINT mixamorig:LeftShoulder
        {
          OFFSET 6.002800 8.887900 -2.628900
          CHANNELS 3 Zrotation Xrotation Yrotation
          JOINT mixamorig:LeftArm
          {
            OFFSET 12.046300 0.000000 0.000000
            CHANNELS 3 Zrotation Xrotation Yrotation
            JOINT mixamorig:LeftForeArm
            {
              OFFSET 27.876501 0.000000 0.000000
              CHANNELS 3 Zrotation Xrotation Yrotation
              JOINT mixamorig:LeftHand
              {
                OFFSET 25.438500 0.000000 0.000000
                CHANNELS 3 Zrotation Xrotation Yrotation
                End Site
                {
                  OFFSET 10.0 0.0 0.0
                }
              }
            }
          }
        }
        JOINT mixamorig:RightShoulder
        {
          OFFSET -6.002800 8.887900 -2.628900
          CHANNELS 3 Zrotation Xrotation Yrotation
          JOINT mixamorig:RightArm
          {
            OFFSET -12.046300 0.000000 0.000000
            CHANNELS 3 Zrotation Xrotation Yrotation
            JOINT mixamorig:RightForeArm
            {
              OFFSET -27.876501 0.000000 0.000000
              CHANNELS 3 Zrotation Xrotation Yrotation
              JOINT mixamorig:RightHand
              {
                OFFSET -25.438500 0.000000 0.000000
                CHANNELS 3 Zrotation Xrotation Yrotation
                End Site
                {
                  OFFSET -10.0 0.0 0.0
                }
              }
            }
          }
        }
      }
    }
  }
}
MOTION
Frames: 29
Frame Time: 0.033333
46.8707 -103.7261 -0.0138 0.0000 0.0000 0.0000 0.1868 -18.3817 -0.0302 0.0000 0.0000 0.0000 0.0000 0.0000 0.0000 0.0000 0.0000 0.0000 0.0000 0.0000 0.0000 0.0000 0.0000 0.0000 -78.1048 -15.1095 -18.5682 -87.2494 -0.2290 -0.2403 0.0000 0.0000 0.0000 0.0000 0.0000 0.0000 51.1625 24.9226 -49.5581 -41.6572 -32.0713 -74.1420 0.0000 0.0000 0.0000
46.8696 -103.7203 -0.0136 0.0000 0.0000 0.0000 0.1852 -18.0203 -0.0294 0.0000 0.0000 0.0000 0.0000 0.0000 0.0000 0.0000 0.0000 0.0000 0.0000 0.0000 0.0000 0.0000 0.0000 0.0000 -74.9357 -18.7429 -24.3039 -83.3629 -14.1595 -15.8816 0.0000 0.0000 0.0000 0.0000 0.0000 0.0000 51.0667 24.9552 -49.7109 -40.6363 -31.6845 -74.9314 0.0000 0.0000 0.0000
46.8736 -103.8746 -0.0136 0.0000 0.0000 0.0000 0.2280 -17.5897 -0.0353 0.0000 0.0000 0.0000 0.0000 0.0000 0.0000 0.0000 0.0000 0.0000 0.0000 0.0000 0.0000 0.0000 0.0000 0.0000 -74.1326 -19.3932 -25.4926 -85.4965 -9.8723 -10.6760 0.0000 0.0000 0.0000 0.0000 0.0000 0.0000 51.2551 25.0637 -49.7220 -41.0459 -31.7594 -74.4648 0.0000 0.0000 0.0000
46.8812 -103.7807 -0.0157 0.0000 0.0000 0.0000 0.2428 -15.6629 -0.0334 0.0000 0.0000 0.0000 0.0000 0.0000 0.0000 0.0000 0.0000 0.0000 0.0000 0.0000 0.0000 0.0000 0.0000 0.0000 -70.8662 -21.8738 -30.3878 -78.1974 -20.1364 -24.6498 0.0000 0.0000 0.0000 0.0000 0.0000 0.0000 49.3591 25.3655 -52.1857 -42.3322 -32.0591 -73.1518 0.0000 0.0000 0.0000
46.9235 -103.4504 -0.0155 0.0000 0.0000 0.0000 0.2883 -16.5655 -0.0420 0.0000 0.0000 0.0000 0.0000 0.0000 0.0000 0.0000 0.0000 0.0000 0.0000 0.0000 0.0000 0.0000 0.0000 0.0000 -71.4991 -21.4856 -29.5292 -84.2265 -11.8810 -13.1323 0.0000 0.0000 0.0000 0.0000 0.0000 0.0000 47.2732 25.5064 -54.6926 -40.7490 -31.2874 -74.0324 0.0000 0.0000 0.0000
46.9475 -103.3707 -0.0143 0.0000 0.0000 0.0000 0.3510 -19.5176 -0.0604 0.0000 0.0000 0.0000 0.0000 0.0000 0.0000 0.0000 0.0000 0.0000 0.0000 0.0000 0.0000 0.0000 0.0000 0.0000 -71.3289 -21.5735 -29.7363 -84.2638 -11.7591 -12.9894 0.0000 0.0000 0.0000 0.0000 0.0000 0.0000 45.6243 25.5469 -56.6489 -39.4579 -30.5715 -74.6211 0.0000 0.0000 0.0000
46.9223 -103.0271 -0.0151 0.0000 0.0000 0.0000 0.3570 -18.6184 -0.0585 0.0000 0.0000 0.0000 0.0000 0.0000 0.0000 0.0000 0.0000 0.0000 0.0000 0.0000 0.0000 0.0000 0.0000 0.0000 -72.4900 -20.7904 -28.0981 -82.7309 -14.3874 -16.3145 0.0000 0.0000 0.0000 0.0000 0.0000 0.0000 45.5874 25.6338 -56.8604 -44.7061 -32.2585 -70.2343 0.0000 0.0000 0.0000
46.9043 -103.0348 -0.0116 0.0000 0.0000 0.0000 0.3448 -19.8208 -0.0602 0.0000 0.0000 0.0000 0.0000 0.0000 0.0000 0.0000 0.0000 0.0000 0.0000 0.0000 0.0000 0.0000 0.0000 0.0000 -74.9791 -18.7224 -24.2592 -87.0948 -2.4349 -2.5615 0.0000 0.0000 0.0000 0.0000 0.0000 0.0000 51.8373 25.6062 -50.1233 -44.0071 -32.0317 -70.7749 0.0000 0.0000 0.0000
46.9132 -103.0584 -0.0099 0.0000 0.0000 0.0000 0.3064 -20.5838 -0.0556 0.0000 0.0000 0.0000 0.0000 0.0000 0.0000 0.0000 0.0000 0.0000 0.0000 0.0000 0.0000 0.0000 0.0000 0.0000 -76.2644 -17.4739 -22.1535 -87.4629 -0.1067 -0.1116 0.0000 0.0000 0.0000 0.0000 0.0000 0.0000 54.5409 25.2633 -46.9939 -41.3732 -31.1565 -72.8794 0.0000 0.0000 0.0000
46.9685 -103.0965 -0.0100 0.0000 0.0000 0.0000 0.3599 -20.6481 -0.0656 0.0000 0.0000 0.0000 0.0000 0.0000 0.0000 0.0000 0.0000 0.0000 0.0000 0.0000 0.0000 0.0000 0.0000 0.0000 -77.2320 -16.3052 -20.3362 -87.1616 3.7937 3.9863 0.0000 0.0000 0.0000 0.0000 0.0000 0.0000 54.6705 25.2208 -46.8051 -40.8295 -30.9754 -73.3350 0.0000 0.0000 0.0000
46.9967 -103.0846 -0.0122 0.0000 0.0000 0.0000 0.4106 -20.3721 -0.0738 0.0000 0.0000 0.0000 0.0000 0.0000 0.0000 0.0000 0.0000 0.0000 0.0000 0.0000 0.0000 0.0000 0.0000 0.0000 -74.3569 -19.1751 -25.1109 -80.2886 -18.3675 -21.7030 0.0000 0.0000 0.0000 0.0000 0.0000 0.0000 53.4727 25.4085 -48.2194 -41.3182 -31.2319 -73.0983 0.0000 0.0000 0.0000
46.9530 -102.9566 -0.0148 0.0000 0.0000 0.0000 0.3627 -17.7124 -0.0565 0.0000 0.0000 0.0000 0.0000 0.0000 0.0000 0.0000 0.0000 0.0000 0.0000 0.0000 0.0000 0.0000 0.0000 0.0000 -75.4058 -18.2940 -23.5337 -83.8607 -12.9433 -14.3955 0.0000 0.0000 0.0000 0.0000 0.0000 0.0000 49.3116 25.7162 -52.8808 -38.1147 -30.1779 -75.9424 0.0000 0.0000 0.0000
46.9202 -102.9570 -0.0133 0.0000 0.0000 0.0000 0.3324 -19.6890 -0.0577 0.0000 0.0000 0.0000 0.0000 0.0000 0.0000 0.0000 0.0000 0.0000 0.0000 0.0000 0.0000 0.0000 0.0000 0.0000 -77.0791 -16.5076 -20.6419 -87.0840 -2.7502 -2.8938 0.0000 0.0000 0.0000 0.0000 0.0000 0.0000 51.2944 25.6263 -50.6932 -39.6243 -30.9414 -75.0670 0.0000 0.0000 0.0000
46.8898 -102.8824 -0.0115 0.0000 0.0000 0.0000 0.2944 -21.0081 -0.0546 0.0000 0.0000 0.0000 0.0000 0.0000 0.0000 0.0000 0.0000 0.0000 0.0000 0.0000 0.0000 0.0000 0.0000 0.0000 -76.6922 -16.9856 -21.3791 -87.1655 -4.6697 -4.9063 0.0000 0.0000 0.0000 0.0000 0.0000 0.0000 50.6448 25.6908 -51.4597 -40.3767 -31.2808 -74.5713 0.0000 0.0000 0.0000
46.8411 -102.8575 -0.0115 0.0000 0.0000 0.0000 0.2785 -21.8908 -0.0539 0.0000 0.0000 0.0000 0.0000 0.0000 0.0000 0.0000 0.0000 0.0000 0.0000 0.0000 0.0000 0.0000 0.0000 0.0000 -78.3325 -14.9590 -18.3111 -87.4478 3.1627 3.3067 0.0000 0.0000 0.0000 0.0000 0.0000 0.0000 50.6395 25.7271 -51.5305 -39.2237 -30.8664 -75.5360 0.0000 0.0000 0.0000
46.8132 -102.8729 -0.0105 0.0000 0.0000 0.0000 0.2549 -22.6923 -0.0511 0.0000 0.0000 0.0000 0.0000 0.0000 0.0000 0.0000 0.0000 0.0000 0.0000 0.0000 0.0000 0.0000 0.0000 0.0000 -77.7817 -15.7153 -19.4176 -87.5404 -2.2472 -2.3458 0.0000 0.0000 0.0000 0.0000 0.0000 0.0000 47.8578 25.7933 -54.5870 -38.9383 -30.7131 -75.6846 0.0000 0.0000 0.0000
46.7837 -102.6423 -0.0109 0.0000 0.0000 0.0000 0.2098 -21.7991 -0.0404 0.0000 0.0000 0.0000 0.0000 0.0000 0.0000 0.0000 0.0000 0.0000 0.0000 0.0000 0.0000 0.0000 0.0000 0.0000 -78.0580 -15.4531 -19.0035 -87.3690 -3.7485 -3.9246 0.0000 0.0000 0.0000 0.0000 0.0000 0.0000 52.4428 25.5936 -49.5150 -46.7551 -33.2954 -69.3462 0.0000 0.0000 0.0000
46.7933 -102.6552 -0.0108 0.0000 0.0000 0.0000 0.2143 -23.0272 -0.0437 0.0000 0.0000 0.0000 0.0000 0.0000 0.0000 0.0000 0.0000 0.0000 0.0000 0.0000 0.0000 0.0000 0.0000 0.0000 -78.4180 -14.9193 -18.2355 -87.4964 3.7237 3.8900 0.0000 0.0000 0.0000 0.0000 0.0000 0.0000 52.4642 25.5280 -49.3790 -46.0388 -32.8884 -69.5745 0.0000 0.0000 0.0000
46.7939 -102.8833 -0.0109 0.0000 0.0000 0.0000 0.2240 -23.3760 -0.0463 0.0000 0.0000 0.0000 0.0000 0.0000 0.0000 0.0000 0.0000 0.0000 0.0000 0.0000 0.0000 0.0000 0.0000 0.0000 -77.4441 -16.2054 -20.1376 -87.6081 2.5401 2.6484 0.0000 0.0000 0.0000 0.0000 0.0000 0.0000 49.6104 25.7090 -52.5550 -41.8350 -31.4031 -72.6689 0.0000 0.0000 0.0000
46.7932 -102.9593 -0.0110 0.0000 0.0000 0.0000 0.2248 -23.0081 -0.0458 0.0000 0.0000 0.0000 0.0000 0.0000 0.0000 0.0000 0.0000 0.0000 0.0000 0.0000 0.0000 0.0000 0.0000 0.0000 -77.3999 -16.3763 -20.3641 -87.6812 -0.4469 -0.4653 0.0000 0.0000 0.0000 0.0000 0.0000 0.0000 48.8781 25.7056 -53.3200 -39.5859 -30.4184 -74.1369 0.0000 0.0000 0.0000
46.8008 -103.0481 -0.0098 0.0000 0.0000 0.0000 0.2340 -22.6983 -0.0470 0.0000 0.0000 0.0000 0.0000 0.0000 0.0000 0.0000 0.0000 0.0000 0.0000 0.0000 0.0000 0.0000 0.0000 0.0000 -77.3540 -16.4327 -20.4502 -87.8840 1.0814 1.1221 0.0000 0.0000 0.0000 0.0000 0.0000 0.0000 52.0194 25.5302 -49.8113 -38.9367 -29.9466 -74.2210 0.0000 0.0000 0.0000
46.7865 -103.1862 -0.0094 0.0000 0.0000 0.0000 0.2325 -22.5348 -0.0463 0.0000 0.0000 0.0000 0.0000 0.0000 0.0000 0.0000 0.0000 0.0000 0.0000 0.0000 0.0000 0.0000 0.0000 0.0000 -77.3706 -16.4030 -20.4077 -87.9122 -1.0081 -1.0455 0.0000 0.0000 0.0000 0.0000 0.0000 0.0000 52.7391 25.4887 -49.0479 -38.8209 -29.7468 -74.0124 0.0000 0.0000 0.0000
46.7985 -103.2637 -0.0096 0.0000 0.0000 0.0000 0.2391 -22.1033 -0.0467 0.0000 0.0000 0.0000 0.0000 0.0000 0.0000 0.0000 0.0000 0.0000 0.0000 0.0000 0.0000 0.0000 0.0000 0.0000 -77.1925 -16.6163 -20.7355 -87.8155 1.8528 1.9248 0.0000 0.0000 0.0000 0.0000 0.0000 0.0000 55.0504 25.2400 -46.4999 -38.3049 -29.4700 -74.2698 0.0000 0.0000 0.0000
46.7819 -103.0708 -0.0107 0.0000 0.0000 0.0000 0.2677 -21.6611 -0.0512 0.0000 0.0000 0.0000 0.0000 0.0000 0.0000 0.0000 0.0000 0.0000 0.0000 0.0000 0.0000 0.0000 0.0000 0.0000 -74.9343 -18.8047 -24.3837 -87.3372 -3.1305 -3.2794 0.0000 0.0000 0.0000 0.0000 0.0000 0.0000 55.5126 25.2486 -46.1079 -36.5016 -28.8150 -75.8389 0.0000 0.0000 0.0000
46.7570 -103.0545 -0.0100 0.0000 0.0000 0.0000 0.2196 -21.8641 -0.0424 0.0000 0.0000 0.0000 0.0000 0.0000 0.0000 0.0000 0.0000 0.0000 0.0000 0.0000 0.0000 0.0000 0.0000 0.0000 -76.9764 -16.8464 -21.1000 -85.6607 9.8086 10.5768 0.0000 0.0000 0.0000 0.0000 0.0000 0.0000 56.5533 25.1246 -45.0041 -32.5948 -27.2437 -79.3068 0.0000 0.0000 0.0000
46.6848 -103.0849 -0.0106 0.0000 0.0000 0.0000 0.1062 -21.7825 -0.0204 0.0000 0.0000 0.0000 0.0000 0.0000 0.0000 0.0000 0.0000 0.0000 0.0000 0.0000 0.0000 0.0000 0.0000 0.0000 -79.0275 -14.4909 -17.5266 -84.7887 11.8819 13.0056 0.0000 0.0000 0.0000 0.0000 0.0000 0.0000 60.8154 24.0699 -39.9290 -32.1461 -27.2288 -80.0994 0.0000 0.0000 0.0000
46.5378 -103.1269 -0.0106 0.0000 0.0000 0.0000 -0.0517 -21.9281 0.0100 0.0000 0.0000 0.0000 0.0000 0.0000 0.0000 0.0000 0.0000 0.0000 0.0000 0.0000 0.0000 0.0000 0.0000 0.0000 -77.5349 -16.3825 -20.3237 -87.0506 4.9750 5.2376 0.0000 0.0000 0.0000 0.0000 0.0000 0.0000 61.0347 24.0694 -39.7675 -28.4161 -25.3855 -83.3101 0.0000 0.0000 0.0000
46.3974 -103.0624 -0.0102 0.0000 0.0000 0.0000 -0.1916 -21.2904 0.0360 0.0000 0.0000 0.0000 0.0000 0.0000 0.0000 0.0000 0.0000 0.0000 0.0000 0.0000 0.0000 0.0000 0.0000 0.0000 -75.6170 -18.4273 -23.6157 -87.3054 3.4254 3.5903 0.0000 0.0000 0.0000 0.0000 0.0000 0.0000 60.8041 24.2333 -40.1943 -24.7458 -23.0905 -85.9189 0.0000 0.0000 0.0000
46.2881 -103.3277 -0.0095 0.0000 0.0000 0.0000 -0.2324 -21.5173 0.0442 0.0000 0.0000 0.0000 0.0000 0.0000 0.0000 0.0000 0.0000 0.0000 0.0000 0.0000 0.0000 0.0000 0.0000 0.0000 -75.7119 -18.4110 -23.5560 -87.7285 0.9724 1.0117 0.0000 0.0000 0.0000 0.0000 0.0000 0.0000 59.5240 24.9243 -42.2615 -24.8815 -23.3594 -86.2769 0.0000 0.0000 0.0000
